<svg version="1.1" xmlns="http://www.w3.org/2000/svg" xmlns:xlink="http://www.w3.org/1999/xlink" width="135.98161" height="112.56295" viewBox="0,0,135.98161,112.56295"><g transform="translate(-231.58615,-123.58153)"><g data-paper-data="{&quot;isPaintingLayer&quot;:true}" fill="none" fill-rule="nonzero" stroke-width="1" stroke-linejoin="miter" stroke-miterlimit="10" stroke-dasharray="" stroke-dashoffset="0" style="mix-blend-mode: normal"><path d="M359.90254,180.00344c-14.72578,0 -29.8922,0 -43.03647,0c-18.60154,0 -46.57744,0 -76.94757,0" stroke="#80f3ff" stroke-linecap="round"/><path d="M351.51949,180.11503c0,-4.29354 3.4806,-7.77414 7.77414,-7.77414c4.29354,0 7.77414,3.4806 7.77414,7.77414c0,4.29354 -3.4806,7.77414 -7.77414,7.77414c-4.29354,0 -7.77414,-3.4806 -7.77414,-7.77414z" stroke="#80f3ff" stroke-linecap="butt"/><path d="M290.58616,180.05789c0,-4.29354 3.4806,-7.77414 7.77414,-7.77414c4.29354,0 7.77414,3.4806 7.77414,7.77414c0,4.29354 -3.4806,7.77414 -7.77414,7.77414c-4.29354,0 -7.77414,-3.4806 -7.77414,-7.77414z" stroke="#80f3ff" stroke-linecap="butt"/><path d="M232.08616,180.05789c0,-4.29354 3.4806,-7.77414 7.77414,-7.77414c4.29354,0 7.77414,3.4806 7.77414,7.77414c0,4.29354 -3.4806,7.77414 -7.77414,7.77414c-4.29354,0 -7.77414,-3.4806 -7.77414,-7.77414z" stroke="#80f3ff" stroke-linecap="butt"/><path d="M248.00556,160.4898v39.74848" stroke="#80f3ff" stroke-linecap="round"/><path d="M305.79116,144.12278v71.14644" stroke="#80f3ff" stroke-linecap="round"/><path d="M366.83346,124.08153v111.56295" stroke="#80f3ff" stroke-linecap="round"/></g></g></svg>