<svg version="1.1" xmlns="http://www.w3.org/2000/svg" xmlns:xlink="http://www.w3.org/1999/xlink" width="188.9749" height="141.13477" viewBox="0,0,188.9749,141.13477"><defs><radialGradient cx="239.89683" cy="172.44902" r="93.98745" gradientUnits="userSpaceOnUse" id="color-1"><stop offset="0" stop-color="#062cff" stop-opacity="0"/><stop offset="1" stop-color="#062cff" stop-opacity="0"/></radialGradient><radialGradient cx="240.25886" cy="173.7837" r="82.08135" gradientUnits="userSpaceOnUse" id="color-2"><stop offset="0" stop-color="#062cff" stop-opacity="0"/><stop offset="1" stop-color="#062cff" stop-opacity="0"/></radialGradient></defs><g transform="translate(-145.40938,-85.63962)"><g data-paper-data="{&quot;isPaintingLayer&quot;:true}" fill-rule="nonzero" stroke="#00ffff" stroke-linecap="butt" stroke-linejoin="miter" stroke-miterlimit="10" stroke-dasharray="" stroke-dashoffset="0" style="mix-blend-mode: normal"><path d="M145.90938,172.44902c0,-51.90783 42.07962,-86.3094 93.98745,-86.3094c51.90783,0 93.98745,34.40157 93.98745,86.3094c0,51.90783 -42.07962,53.82537 -93.98745,53.82537c-51.90783,0 -93.98745,-1.91754 -93.98745,-53.82537z" fill="url(#color-1)" stroke-width="1"/><path d="M158.17753,173.7837c0,-45.33227 36.74908,-75.37592 82.08135,-75.37592c45.33227,0 82.08135,30.04365 82.08135,75.37592c0,45.33227 -36.74908,47.0069 -82.08135,47.0069c-45.33227,0 -82.08135,-1.67463 -82.08135,-47.0069z" fill="url(#color-2)" stroke-width="0.5"/></g></g></svg>