<svg version="1.1" xmlns="http://www.w3.org/2000/svg" xmlns:xlink="http://www.w3.org/1999/xlink" width="82.57295" height="23.26135" viewBox="0,0,82.57295,23.26135"><g transform="translate(-228.41723,-168.41723)"><g fill="none" stroke-miterlimit="10"><path d="" stroke="#80f3ff" stroke-width="1" stroke-linecap="butt"/><path d="M229.16723,180c0,-5.98278 4.85,-10.83277 10.83277,-10.83277c5.98278,0 10.83277,4.85 10.83277,10.83277c0,5.98278 -4.85,10.83277 -10.83277,10.83277c-5.98278,0 -10.83277,-4.85 -10.83277,-10.83277z" stroke="#80f3ff" stroke-width="1.5" stroke-linecap="butt"/><path d="M310.37176,191.17947l-29.20827,-1.73981c0,0 -29.4339,-5.99056 -29.4339,-9.42427c0,-3.0137 29.86057,-9.43035 29.86057,-9.43035l29.38153,-1.08738" stroke="#80f3ff" stroke-width="1" stroke-linecap="butt"/><path d="M256.51523,180.41232l53.70277,-0.44272" stroke="#80f3ff" stroke-width="1" stroke-linecap="round"/><path d="M301.68468,188.97229l-23.28588,-1.38703c0,0 -23.46577,-4.77589 -23.46577,-7.51336c0,-2.40263 23.80592,-7.51822 23.80592,-7.51822l23.42401,-0.8669" stroke="#80f3ff" stroke-width="1" stroke-linecap="butt"/></g></g></svg>