<svg version="1.1" xmlns="http://www.w3.org/2000/svg" xmlns:xlink="http://www.w3.org/1999/xlink" width="207.38199" height="207.38199" viewBox="0,0,207.38199,207.38199"><g transform="translate(-136.30901,-76.309)"><g fill="none" stroke-miterlimit="10"><path d="M240.46026,179.7825l97.53319,-28.48317c0,0 0.51905,1.84715 0.75933,2.77859c2.09649,8.12688 3.21169,16.64812 3.21169,25.42983c0,12.14861 -2.13425,23.79873 -6.04826,34.5959c-3.86006,10.64834 -9.45117,20.46708 -16.43329,29.11617c-1.47868,1.83172 -3.01974,3.61096 -4.61997,5.33453c-0.96053,1.03457 -74.40269,-68.77186 -74.40269,-68.77186z" stroke="#00ffff" stroke-width="1"/><path d="M303.5151,237.54586c-0.80183,0.86707 -62.10852,-57.63739 -62.10852,-57.63739l81.41696,-23.87162c0,0 0.4333,1.5481 0.63387,2.32874c1.75007,6.8111 2.681,13.95272 2.681,21.31264c0,10.18168 -1.78159,19.94561 -5.04885,28.99467c-3.22224,8.92433 -7.88949,17.15336 -13.71789,24.40213c-1.23434,1.53515 -2.52076,3.02634 -3.85657,4.47085z" stroke="#00ffff" stroke-width="0.5"/><path d="M137.05901,180c0,-56.85274 46.08825,-102.94099 102.94099,-102.94099c56.85275,0 102.94099,46.08825 102.94099,102.941c0,56.85275 -46.08825,102.94099 -102.94099,102.94099c-56.85274,0 -102.94099,-46.08825 -102.94099,-102.94099z" stroke-opacity="0.25098" stroke="#80f2ff" stroke-width="1.5"/></g></g></svg>