<svg version="1.1" xmlns="http://www.w3.org/2000/svg" xmlns:xlink="http://www.w3.org/1999/xlink" width="563.9612" height="419.94498" viewBox="0,0,563.9612,419.94498"><g transform="translate(113.98871,29.97249)"><g fill="none" stroke="#80f3ff" stroke-miterlimit="10"><path d="M-113.29141,164.16054h310.65121c0,0 43.14,10.92919 43.14,16.06227c0,5.84846 -43.53811,17.16317 -43.53811,17.16317h-310.9504" stroke-linecap="butt"/><path d="M177.28794,179.78762l-279.1775,0.72759" stroke-linecap="round"/><path d="M30.52752,180.00001c0,-115.68847 93.78423,-209.47249 209.47249,-209.47249c115.68847,0 209.47249,93.78423 209.47249,209.47249c0,115.68847 -93.78423,209.47249 -209.47249,209.47249c-115.68847,0 -209.47249,-93.78423 -209.47249,-209.47249z" stroke-linecap="butt"/><path d="M224.59864,180.00001c0,-8.50594 6.89544,-15.40137 15.40137,-15.40137c8.50594,0 15.40137,6.89544 15.40137,15.40137c0,8.50594 -6.89544,15.40137 -15.40137,15.40137c-8.50594,0 -15.40137,-6.89544 -15.40137,-15.40137z" stroke-linecap="butt"/></g></g></svg>