<svg version="1.1" xmlns="http://www.w3.org/2000/svg" xmlns:xlink="http://www.w3.org/1999/xlink" width="409.70998" height="409.70998" viewBox="0,0,409.70998,409.70998"><g transform="translate(-35.14501,24.85499)"><g fill="none" stroke="#80f3ff" stroke-miterlimit="10"><path d="M231.91848,180.00465c0,-4.46078 3.61619,-8.07696 8.07696,-8.07696c4.46078,0 8.07696,3.61619 8.07696,8.07696c0,4.46078 -3.61619,8.07696 -8.07696,8.07696c-4.46078,0 -8.07696,-3.61619 -8.07696,-8.07696z" stroke-linecap="butt"/><path d="M246.75799,175.29629h173.22429c0,0 24.05559,3.29952 24.05559,4.8492c0,1.76566 -24.27757,5.18156 -24.27757,5.18156h-173.39113" stroke-linecap="butt"/><path d="M248.4385,180.23377l160.35137,-0.21966" stroke-linecap="round"/><path d="M35.64501,180c0,-112.86214 91.49284,-204.35499 204.35499,-204.35499c112.86214,0 204.35499,91.49284 204.35499,204.35499c0,112.86214 -91.49284,204.35499 -204.35499,204.35499c-112.86214,0 -204.35499,-91.49284 -204.35499,-204.35499z" stroke-linecap="butt"/></g></g></svg>