<svg version="1.1" xmlns="http://www.w3.org/2000/svg" xmlns:xlink="http://www.w3.org/1999/xlink" width="67.37704" height="80.24824" viewBox="0,0,67.37704,80.24824"><g transform="translate(-223.3647,-136.45395)"><g data-paper-data="{&quot;isPaintingLayer&quot;:true}" fill="none" fill-rule="nonzero" stroke="#80f3ff" stroke-width="1" stroke-linejoin="miter" stroke-miterlimit="10" stroke-dasharray="" stroke-dashoffset="0" style="mix-blend-mode: normal"><path d="M231.9185,180.00465c0,-4.46078 3.61619,-8.07696 8.07696,-8.07696c4.46078,0 8.07696,3.61619 8.07696,8.07696c0,4.46078 -3.61619,8.07696 -8.07696,8.07696c-4.46078,0 -8.07696,-3.61619 -8.07696,-8.07696z" stroke-linecap="butt"/><path d="M262.9788,185.55042c0,-2.70593 2.19359,-4.89952 4.89952,-4.89952c2.70593,0 4.89953,2.19359 4.89953,4.89952c0,2.70593 -2.1936,4.89953 -4.89953,4.89953c-2.70593,0 -4.89952,-2.1936 -4.89952,-4.89953z" stroke-linecap="butt"/><path d="M265.42856,185.6729c0,-1.42061 1.15163,-2.57225 2.57225,-2.57225c1.42061,0 2.57225,1.15163 2.57225,2.57225c0,1.42061 -1.15163,2.57225 -2.57225,2.57225c-1.42061,0 -2.57225,-1.15163 -2.57225,-2.57225z" stroke-linecap="butt"/><path d="M232.64872,207.98416l3.12759,-7.78214l1.96994,10.58095l6.36938,-10.04402l2.20479,12.49378l5.94667,-9.77878l0.17773,11.00366l7.34929,-9.79905l-0.15104,10.59108l7.99028,-5.93653l-4.55047,5.62432l0.28181,-8.45996l-6.75526,8.71507l0.27539,-11.11786l-7.42667,9.71525l-1.91284,-11.58113l-5.87943,9.79905l-2.50686,-11.53416l-3.86252,9.08439l-4.1646,-9.06412z" stroke-linecap="round"/><path d="M225.00748,157.62313l65.16367,14.94355l-0.48995,2.93971l-65.65362,-15.18852z" stroke-linecap="round"/><path d="M232.84672,158.11308l1.46986,-3.18469l48.50529,11.02393l-0.48995,3.42967" stroke-linecap="round"/><path d="M235.05151,153.70351l5.38948,-16.65838l46.3005,10.77895l-3.91962,16.90336z" stroke-linecap="round"/></g></g></svg>