<svg version="1.1" xmlns="http://www.w3.org/2000/svg" xmlns:xlink="http://www.w3.org/1999/xlink" width="232.59087" height="53.33912" viewBox="0,0,232.59087,53.33912"><g transform="translate(-229.41852,-152.44786)"><g fill="none" stroke="#80f3ff" stroke-miterlimit="10"><path d="M248.58121,168.69439h144.41688c0,0 43.65209,7.32879 43.65209,10.77084c0,3.92175 -40.88574,11.50911 -42.7682,11.50911c-13.58998,0 -145.67138,0 -145.67138,0" stroke-linecap="butt"/><path d="M426.94027,179.74373l-171.30563,-0.08244" stroke-linecap="round"/><path d="M229.91853,180.00007c0,-5.56792 4.5137,-10.08161 10.08161,-10.08161c5.56792,0 10.08161,4.5137 10.08161,10.08161c0,5.56792 -4.5137,10.08161 -10.08161,10.08161c-5.56792,0 -10.08161,-4.5137 -10.08161,-10.08161z" stroke-linecap="butt"/><path d="M409.17028,179.11743c0,-14.45305 11.71651,-26.16956 26.16956,-26.16956c14.45305,0 26.16956,11.71651 26.16956,26.16956c0,14.45305 -11.71651,26.16956 -26.16956,26.16956c-14.45305,0 -26.16956,-11.71651 -26.16956,-26.16956z" stroke-linecap="butt"/><path d="M250.92733,170.9002h121.32014c0,0 36.67076,5.85527 36.67076,8.60527c0,3.13324 -34.34684,9.1951 -35.92824,9.1951c-11.41652,0 -122.37399,0 -122.37399,0" stroke-linecap="butt"/><path d="M420.74296,161.17966l12.38396,-5.40708" stroke-linecap="round"/><path d="M450.45969,197.19527l-12.38396,5.40708" stroke-linecap="round"/><path d="M458.95798,181.77806l-5.40708,12.38396" stroke-linecap="round"/><path d="M417.53528,164.44528l-5.40708,12.38396" stroke-linecap="round"/><path d="M417.47705,193.92936l-5.40708,-12.38396" stroke-linecap="round"/><path d="M453.49266,164.21263l5.40708,12.38396" stroke-linecap="round"/><path d="M438.07545,155.71434l12.38396,5.40708" stroke-linecap="round"/><path d="M420.74267,197.13704l12.38396,5.40708" stroke-linecap="round"/></g></g></svg>