<svg version="1.1" xmlns="http://www.w3.org/2000/svg" xmlns:xlink="http://www.w3.org/1999/xlink" width="238.75903" height="68.31468" viewBox="0,0,238.75903,68.31468"><g transform="translate(-179.87483,-145.50759)"><g fill="none" stroke-miterlimit="10"><path d="M229.91839,180c0,-5.56792 4.5137,-10.08161 10.08161,-10.08161c5.56792,0 10.08161,4.5137 10.08161,10.08161c0,5.56792 -4.5137,10.08161 -10.08161,10.08161c-5.56792,0 -10.08161,-4.5137 -10.08161,-10.08161z" stroke="#80f3ff" stroke-width="1" stroke-linecap="butt"/><path d="M180.37484,179.66493c0,-18.58843 15.06894,-33.65734 33.65734,-33.65734c18.58843,0 33.65734,15.06894 33.65734,33.65734c0,18.58843 -15.06894,33.65734 -33.65734,33.65734c-18.58843,0 -33.65734,-15.06894 -33.65734,-33.65734z" stroke="#80f3ff" stroke-width="1" stroke-linecap="butt"/><path d="M250.15899,168.57791h128.98676c0,0 38.98812,7.01397 38.98812,10.30816c0,3.75328 -36.51733,11.01472 -38.19865,11.01472c-12.13797,0 -130.10722,0 -130.10722,0" stroke="#80f3ff" stroke-width="1" stroke-linecap="butt"/><path d="M409.46141,179.23409l-153.00261,-0.0789" stroke="#80f3ff" stroke-width="1" stroke-linecap="round"/><path d="M213.00506,179.5282h200.87972" stroke="#80f2ff" stroke-width="1.5" stroke-linecap="round"/><path d="M389.02193,173.45873l26.09946,5.7984l-26.09946,5.7984" stroke="#80f2ff" stroke-width="1.5" stroke-linecap="round"/></g></g></svg>