<svg version="1.1" xmlns="http://www.w3.org/2000/svg" xmlns:xlink="http://www.w3.org/1999/xlink" width="206.95448" height="206.95448" viewBox="0,0,206.95448,206.95448"><g transform="translate(-136.52276,-76.52276)"><g fill="none" stroke-miterlimit="10"><path d="M137.02276,180c0,-56.87277 46.10458,-102.97724 102.97724,-102.97724c56.87277,0 102.97724,46.10458 102.97724,102.97724c0,56.87277 -46.10458,102.97724 -102.97724,102.97724c-56.87277,0 -102.97724,-46.10458 -102.97724,-102.97724z" stroke="#80f3ff" stroke-width="1" stroke-linecap="butt"/><path d="M147.23059,180c0,-51.23514 41.53437,-92.76941 92.76941,-92.76941c51.23514,0 92.76941,41.53437 92.76941,92.76941c0,51.23514 -41.53437,92.76941 -92.76941,92.76941c-51.23514,0 -92.76941,-41.53437 -92.76941,-92.76941z" stroke="#80f3ff" stroke-width="1" stroke-linecap="butt"/><path d="M225.81088,180h28.37824" stroke="#80f3ff" stroke-width="1.5" stroke-linecap="round"/><path d="M240,165.81088v28.37824" stroke="#80f3ff" stroke-width="1.5" stroke-linecap="round"/></g></g></svg>