<svg version="1.1" xmlns="http://www.w3.org/2000/svg" xmlns:xlink="http://www.w3.org/1999/xlink" width="89.53129" height="89.38305" viewBox="0,0,89.53129,89.38305"><g transform="translate(-195.23436,-135.30847)"><g data-paper-data="{&quot;isPaintingLayer&quot;:true}" fill="none" fill-rule="nonzero" stroke="#80f3ff" stroke-linejoin="miter" stroke-miterlimit="10" stroke-dasharray="" stroke-dashoffset="0" style="mix-blend-mode: normal"><path d="M230.35251,180.10819c0,-5.26007 4.26413,-9.5242 9.5242,-9.5242c5.26007,0 9.5242,4.26413 9.5242,9.5242c0,5.26007 -4.26413,9.5242 -9.5242,9.5242c-5.26007,0 -9.5242,-4.26413 -9.5242,-9.5242z" stroke-width="1" stroke-linecap="butt"/><path d="M283.84565,223.91977l-88.3613,-88.3613" stroke-width="0.5" stroke-linecap="round"/><path d="M284.2285,224.21791l-88.3613,-88.3613" stroke-width="0.5" stroke-linecap="round"/><path d="M211.4874,136.77544l71.82227,71.82227" stroke-width="0.5" stroke-linecap="round"/><path d="M249.55177,179.81727c0,5.26007 -4.26413,9.5242 -9.5242,9.5242c-5.26007,0 -9.5242,-4.26413 -9.5242,-9.5242c0,-5.26007 4.26413,-9.5242 9.5242,-9.5242c5.26007,0 9.5242,4.26413 9.5242,9.5242z" data-paper-data="{&quot;index&quot;:null}" stroke-width="1" stroke-linecap="butt"/><path d="M196.05863,136.00569l88.3613,88.3613" data-paper-data="{&quot;index&quot;:null}" stroke-width="0.5" stroke-linecap="round"/><path d="M284.03708,224.06885l-88.3613,-88.3613" data-paper-data="{&quot;index&quot;:null}" stroke-width="0.5" stroke-linecap="round"/><path d="M196.59461,151.32774l71.82227,71.82227" data-paper-data="{&quot;index&quot;:null}" stroke-width="0.5" stroke-linecap="round"/><path d="M229.02616,189.05502l22.04338,-18.03549" stroke-width="1.5" stroke-linecap="round"/><path d="M240.12328,189.70693c-5.26007,0 -9.5242,-4.26413 -9.5242,-9.5242c0,-5.26007 4.26413,-9.5242 9.5242,-9.5242c5.26007,0 9.5242,4.26413 9.5242,9.5242c0,5.26007 -4.26413,9.5242 -9.5242,9.5242z" data-paper-data="{&quot;index&quot;:null}" stroke-width="1" stroke-linecap="butt"/><path d="M284.51564,135.63301l-88.3613,88.3613" data-paper-data="{&quot;index&quot;:null}" stroke-width="0.5" stroke-linecap="round"/><path d="M195.7715,224.29245l88.3613,-88.3613" data-paper-data="{&quot;index&quot;:null}" stroke-width="0.5" stroke-linecap="round"/><path d="M196.69033,208.67226l71.82227,-71.82227" data-paper-data="{&quot;index&quot;:null}" stroke-width="0.5" stroke-linecap="round"/><path d="M239.97243,170.36761c5.26007,0 9.5242,4.26413 9.5242,9.5242c0,5.26007 -4.26413,9.5242 -9.5242,9.5242c-5.26007,0 -9.5242,-4.26413 -9.5242,-9.5242c0,-5.26007 4.26413,-9.5242 9.5242,-9.5242z" data-paper-data="{&quot;index&quot;:null}" stroke-width="1" stroke-linecap="butt"/><path d="M283.94137,136.08023l-88.3613,88.3613" data-paper-data="{&quot;index&quot;:null}" stroke-width="0.5" stroke-linecap="round"/><path d="M195.96292,224.14338l88.3613,-88.3613" data-paper-data="{&quot;index&quot;:null}" stroke-width="0.5" stroke-linecap="round"/><path d="M211.58312,223.22455l71.82227,-71.82227" data-paper-data="{&quot;index&quot;:null}" stroke-width="0.5" stroke-linecap="round"/><path d="M250.97384,189.12956l-22.04338,-18.03549" data-paper-data="{&quot;index&quot;:null}" stroke-width="1.5" stroke-linecap="round"/></g></g></svg>