<svg version="1.1" xmlns="http://www.w3.org/2000/svg" xmlns:xlink="http://www.w3.org/1999/xlink" width="216.41013" height="68.69235" viewBox="0,0,216.41013,68.69235"><g transform="translate(-231.41848,-146.24402)"><g fill="none" stroke-miterlimit="10"><path d="M231.91848,180.00465c0,-4.46078 3.61619,-8.07696 8.07696,-8.07696c4.46078,0 8.07696,3.61619 8.07696,8.07696c0,4.46078 -3.61619,8.07696 -8.07696,8.07696c-4.46078,0 -8.07696,-3.61619 -8.07696,-8.07696z" stroke="#80f3ff" stroke-linecap="butt"/><path d="M246.876,146.74402h153.92619c0,0 46.52643,22.26676 46.52643,32.7247c0,11.91544 -43.57792,34.96765 -45.58432,34.96765c-14.48484,0 -155.26332,0 -155.26332,0" stroke="#80f3ff" stroke-linecap="butt"/><path d="M436.97932,180.31485l-196.76228,-0.25045" stroke="#80f3ff" stroke-linecap="round"/><path d="M330.13209,174.03047l108.31898,6.27051l-108.31898,5.99788" stroke="#80f3ff" stroke-linecap="round"/><path d="M385.54004,154.90756l53.13709,25.48944l-53.13709,24.38123" stroke="#80f3ff" stroke-linecap="round"/><path d="M370.21133,168.43099l66.93053,11.817l-66.93053,11.30323" stroke="#80f3ff" stroke-linecap="round"/><path d="M256.51886,148.94177h143.1882c0,0 43.28072,20.71342 43.28072,30.4418c0,11.08421 -40.5379,32.52828 -42.40433,32.52828c-13.47437,0 -144.43205,0 -144.43205,0" stroke="#80f3ff" stroke-linecap="butt"/></g></g></svg>