<svg version="1.1" xmlns="http://www.w3.org/2000/svg" xmlns:xlink="http://www.w3.org/1999/xlink" width="18.74231" height="14.46154" viewBox="0,0,18.74231,14.46154"><defs><radialGradient cx="240" cy="180" r="7.23077" gradientUnits="userSpaceOnUse" id="color-1"><stop offset="0" stop-color="#ff0000" stop-opacity="0"/><stop offset="1" stop-color="#ff0000" stop-opacity="0.10588"/></radialGradient><radialGradient cx="114.24423" cy="88.25577" r="0.00125" gradientUnits="userSpaceOnUse" id="color-2"><stop offset="0" stop-color="#ff0000" stop-opacity="0"/><stop offset="1" stop-color="#ff0000" stop-opacity="0.10588"/></radialGradient><radialGradient cx="240" cy="180" r="7.23077" gradientUnits="userSpaceOnUse" id="color-3"><stop offset="0" stop-color="#ff0000" stop-opacity="0"/><stop offset="1" stop-color="#ff0000" stop-opacity="0.10588"/></radialGradient><radialGradient cx="240" cy="180" r="7.23077" gradientUnits="userSpaceOnUse" id="color-4"><stop offset="0" stop-color="#ff0000" stop-opacity="0"/><stop offset="1" stop-color="#ff0000" stop-opacity="0.10588"/></radialGradient><radialGradient cx="240" cy="180" r="7.23077" gradientUnits="userSpaceOnUse" id="color-5"><stop offset="0" stop-color="#ff0000" stop-opacity="0"/><stop offset="1" stop-color="#ff0000" stop-opacity="0.10588"/></radialGradient></defs><g transform="translate(-228.48847,-172.76923)"><g data-paper-data="{&quot;isPaintingLayer&quot;:true}" fill-rule="nonzero" stroke="none" stroke-width="0" stroke-linecap="butt" stroke-linejoin="miter" stroke-miterlimit="10" stroke-dasharray="" stroke-dashoffset="0" style="mix-blend-mode: normal"><path d="M232.76923,180c0,-3.99344 3.23733,-7.23077 7.23077,-7.23077c3.99344,0 7.23077,3.23733 7.23077,7.23077c0,3.99344 -3.23733,7.23077 -7.23077,7.23077c-3.99344,0 -7.23077,-3.23733 -7.23077,-7.23077z" fill="url(#color-1)"/><path d="M228.48847,176.51154v0v0v0z" fill="url(#color-2)"/><path d="M232.76923,180c0,-3.99344 3.23733,-7.23077 7.23077,-7.23077c3.99344,0 7.23077,3.23733 7.23077,7.23077c0,3.99344 -3.23733,7.23077 -7.23077,7.23077c-3.99344,0 -7.23077,-3.23733 -7.23077,-7.23077z" fill="url(#color-3)"/><path d="M232.76923,180c0,-3.99344 3.23733,-7.23077 7.23077,-7.23077c3.99344,0 7.23077,3.23733 7.23077,7.23077c0,3.99344 -3.23733,7.23077 -7.23077,7.23077c-3.99344,0 -7.23077,-3.23733 -7.23077,-7.23077z" fill="url(#color-4)"/><path d="M232.76923,180c0,-3.99344 3.23733,-7.23077 7.23077,-7.23077c3.99344,0 7.23077,3.23733 7.23077,7.23077c0,3.99344 -3.23733,7.23077 -7.23077,7.23077c-3.99344,0 -7.23077,-3.23733 -7.23077,-7.23077z" fill="url(#color-5)"/></g></g></svg>