<svg version="1.1" xmlns="http://www.w3.org/2000/svg" xmlns:xlink="http://www.w3.org/1999/xlink" width="77.61092" height="58.11323" viewBox="0,0,77.61092,58.11323"><defs><radialGradient cx="240.00007" cy="169.55364" r="38.30546" gradientUnits="userSpaceOnUse" id="color-1"><stop offset="0" stop-color="#062cff" stop-opacity="0"/><stop offset="1" stop-color="#062cff" stop-opacity="0"/></radialGradient><radialGradient cx="240.14762" cy="170.0976" r="33.45302" gradientUnits="userSpaceOnUse" id="color-2"><stop offset="0" stop-color="#062cff" stop-opacity="0"/><stop offset="1" stop-color="#062cff" stop-opacity="0"/></radialGradient></defs><g transform="translate(-201.1946,-133.87743)"><g data-paper-data="{&quot;isPaintingLayer&quot;:true}" fill-rule="nonzero" stroke="#00ffff" stroke-linecap="butt" stroke-linejoin="miter" stroke-miterlimit="10" stroke-dasharray="" stroke-dashoffset="0" style="mix-blend-mode: normal"><path d="M201.69461,169.55364c0,-21.15552 17.14994,-35.1762 38.30546,-35.1762c21.15552,0 38.30546,14.02068 38.30546,35.1762c0,21.15552 -17.14994,21.93703 -38.30546,21.93703c-21.15552,0 -38.30546,-0.78151 -38.30546,-21.93703z" fill="url(#color-1)" stroke-width="1"/><path d="M206.69461,170.0976c0,-18.47559 14.97743,-30.72016 33.45302,-30.72016c18.47559,0 33.45302,12.24457 33.45302,30.72016c0,18.47559 -14.97743,19.1581 -33.45302,19.1581c-18.47559,0 -33.45302,-0.68251 -33.45302,-19.1581z" fill="url(#color-2)" stroke-width="0.5"/></g></g></svg>