<svg version="1.1" xmlns="http://www.w3.org/2000/svg" xmlns:xlink="http://www.w3.org/1999/xlink" width="73.17188" height="73.05088" viewBox="0,0,73.17188,73.05088"><g transform="translate(-203.375,-143.44414)"><g data-paper-data="{&quot;isPaintingLayer&quot;:true}" fill="none" fill-rule="nonzero" stroke-linejoin="miter" stroke-miterlimit="10" stroke-dasharray="" stroke-dashoffset="0" style="mix-blend-mode: normal"><path d="M232.08617,180.05789c0,-4.29354 3.4806,-7.77414 7.77414,-7.77414c4.29354,0 7.77414,3.4806 7.77414,7.77414c0,4.29354 -3.4806,7.77414 -7.77414,7.77414c-4.29354,0 -7.77414,-3.4806 -7.77414,-7.77414z" stroke="#80f3ff" stroke-width="1" stroke-linecap="butt"/><path d="M203.625,143.69414l72.125,72.125" stroke="#80f3ff" stroke-width="0.5" stroke-linecap="round"/><path d="M276.0625,216.0625l-72.125,-72.125" stroke="#80f3ff" stroke-width="0.5" stroke-linecap="round"/><path d="M216.6875,144.6875l58.625,58.625" stroke="#80f3ff" stroke-width="0.5" stroke-linecap="round"/><path d="M247.75758,179.82043c0,4.29354 -3.4806,7.77414 -7.77414,7.77414c-4.29354,0 -7.77414,-3.4806 -7.77414,-7.77414c0,-4.29354 3.4806,-7.77414 7.77414,-7.77414c4.29354,0 7.77414,3.4806 7.77414,7.77414z" data-paper-data="{&quot;index&quot;:null}" stroke="#80f3ff" stroke-width="1" stroke-linecap="butt"/><path d="M276.21875,216.18418l-72.125,-72.125" data-paper-data="{&quot;index&quot;:null}" stroke="#80f3ff" stroke-width="0.5" stroke-linecap="round"/><path d="M275.90625,215.94082l-72.125,-72.125" data-paper-data="{&quot;index&quot;:null}" stroke="#80f3ff" stroke-width="0.5" stroke-linecap="round"/><path d="M263.15625,215.19082l-58.625,-58.625" data-paper-data="{&quot;index&quot;:null}" stroke="#80f3ff" stroke-width="0.5" stroke-linecap="round"/><path d="M248.99646,172.63926l-17.99293,14.72149" stroke="#80f3ff" stroke-width="1.5" stroke-linecap="round"/><path d="M240.06157,187.89287c-4.29354,0 -7.77414,-3.4806 -7.77414,-7.77414c0,-4.29354 3.4806,-7.77414 7.77414,-7.77414c4.29354,0 7.77414,3.4806 7.77414,7.77414c0,4.29354 -3.4806,7.77414 -7.77414,7.77414z" data-paper-data="{&quot;index&quot;:null}" stroke="#80f3ff" stroke-width="1" stroke-linecap="butt"/><path d="M276.29688,143.75498l-72.125,72.125" data-paper-data="{&quot;index&quot;:null}" stroke="#80f3ff" stroke-width="0.5" stroke-linecap="round"/><path d="M203.85938,216.12334l72.125,-72.125" data-paper-data="{&quot;index&quot;:null}" stroke="#80f3ff" stroke-width="0.5" stroke-linecap="round"/><path d="M263.23438,144.74834l-58.625,58.625" data-paper-data="{&quot;index&quot;:null}" stroke="#80f3ff" stroke-width="0.5" stroke-linecap="round"/><path d="M239.93844,172.10713c4.29354,0 7.77414,3.4806 7.77414,7.77414c0,4.29354 -3.4806,7.77414 -7.77414,7.77414c-4.29354,0 -7.77414,-3.4806 -7.77414,-7.77414c0,-4.29354 3.4806,-7.77414 7.77414,-7.77414z" data-paper-data="{&quot;index&quot;:null}" stroke="#80f3ff" stroke-width="1" stroke-linecap="butt"/><path d="M203.70313,216.24502l72.125,-72.125" data-paper-data="{&quot;index&quot;:null}" stroke="#80f3ff" stroke-width="0.5" stroke-linecap="round"/><path d="M204.01563,216.00166l72.125,-72.125" data-paper-data="{&quot;index&quot;:null}" stroke="#80f3ff" stroke-width="0.5" stroke-linecap="round"/><path d="M216.76563,215.25166l58.625,-58.625" data-paper-data="{&quot;index&quot;:null}" stroke="#80f3ff" stroke-width="0.5" stroke-linecap="round"/><path d="M230.92542,172.7001l17.99293,14.72149" data-paper-data="{&quot;index&quot;:null}" stroke="#80f3ff" stroke-width="1.5" stroke-linecap="round"/></g></g></svg>