<svg version="1.1" xmlns="http://www.w3.org/2000/svg" xmlns:xlink="http://www.w3.org/1999/xlink" width="155.84985" height="137.06409" viewBox="0,0,155.84985,137.06409"><g transform="translate(-155.0061,-105.31131)"><g data-paper-data="{&quot;isPaintingLayer&quot;:true}" fill="none" fill-rule="nonzero" stroke="#80f3ff" stroke-linejoin="miter" stroke-miterlimit="10" stroke-dasharray="" stroke-dashoffset="0" style="mix-blend-mode: normal"><path d="M229.91851,180.00006c0,-5.56792 4.5137,-10.08161 10.08161,-10.08161c5.56792,0 10.08161,4.5137 10.08161,10.08161c0,5.56792 -4.5137,10.08161 -10.08161,10.08161c-5.56792,0 -10.08161,-4.5137 -10.08161,-10.08161z" stroke-width="1" stroke-linecap="butt"/><path d="M206.73559,171.35556c0,-18.58843 15.06894,-33.65734 33.65734,-33.65734c18.58843,0 33.65734,15.06894 33.65734,33.65734c0,18.58843 -15.06894,33.65734 -33.65734,33.65734c-18.58843,0 -33.65734,-15.06894 -33.65734,-33.65734z" stroke-width="1" stroke-linecap="butt"/><path d="M169.78642,173.39364l-10.29406,5.9772l30.21804,-2.9886" stroke-width="2" stroke-linecap="round"/><path d="M273.72319,138.52667l30.55011,-29.22184l-15.60712,7.96959" stroke-width="2" stroke-linecap="round"/><path d="M275.05146,214.2378l20.92018,22.91258l-3.98479,-8.96579" stroke-width="2" stroke-linecap="round"/><path d="M284.01725,179.03877l22.58051,3.65273l-6.30926,-4.31686" stroke-width="2" stroke-linecap="round"/></g></g></svg>