<svg version="1.1" xmlns="http://www.w3.org/2000/svg" xmlns:xlink="http://www.w3.org/1999/xlink" width="533.6981" height="506.4554" viewBox="0,0,533.6981,506.4554"><defs><linearGradient x1="239.99991" y1="-21.99002" x2="239.99991" y2="365.59291" gradientUnits="userSpaceOnUse" id="color-1"><stop offset="0" stop-color="#ff6200" stop-opacity="0.14118"/><stop offset="1" stop-color="#ff6200" stop-opacity="0"/></linearGradient></defs><g transform="translate(27.79129,120.79418)"><g data-paper-data="{&quot;isPaintingLayer&quot;:true}" fill-rule="nonzero" stroke-linejoin="miter" stroke-miterlimit="10" stroke-dasharray="" stroke-dashoffset="0" style="mix-blend-mode: normal"><path d="M487.52676,-5.5929l18.38006,371.18581l-531.81364,-7.29211l13.87249,-362.30138z" data-paper-data="{&quot;index&quot;:null}" fill="url(#color-1)" stroke="#000000" stroke-width="0" stroke-linecap="round"/><path d="M82.59166,180c0,-86.93423 70.47412,-157.40835 157.40835,-157.40835c86.93423,0 157.40835,70.47412 157.40835,157.40835c0,86.93423 -70.47412,157.40835 -157.40835,157.40835c-86.93423,0 -157.40835,-70.47412 -157.40835,-157.40835z" fill="none" stroke="#ff6200" stroke-width="0.5" stroke-linecap="butt"/><path d="M66.85083,180c0,-95.62765 77.52153,-173.14918 173.14918,-173.14918c95.62766,0 173.14918,77.52153 173.14918,173.14918c0,95.62766 -77.52152,173.14918 -173.14918,173.14918c-95.62765,0 -173.14918,-77.52152 -173.14918,-173.14918z" fill="none" stroke="#ff6200" stroke-width="0.5" stroke-linecap="butt"/><path d="M-27.54129,22.86941c0,0 209.69583,0 300.35553,0c75.00806,0 205.59988,0 205.59988,0" fill="none" stroke="#ff6200" stroke-width="0.5" stroke-linecap="round"/><path d="M-22.54129,6.50685c0,0 209.69583,0 300.35553,0c75.00806,0 205.59988,0 205.59988,0" fill="none" stroke="#ff6200" stroke-width="0.5" stroke-linecap="round"/><path d="M75.27675,-120.54418c0,0 0,209.69582 0,300.35552c0,75.00805 0,205.59988 0,205.59988" fill="none" stroke="#ff6200" stroke-width="0.5" stroke-linecap="round"/><path d="M60.10476,180c0,-99.3534 80.54185,-179.89525 179.89525,-179.89525c99.35341,0 179.89525,80.54185 179.89525,179.89525c0,99.35341 -80.54184,179.89525 -179.89525,179.89525c-99.3534,0 -179.89525,-80.54184 -179.89525,-179.89525z" fill="none" stroke="#ff6200" stroke-width="0.5" stroke-linecap="butt"/><path d="M72.05159,180c0,-92.75535 75.19307,-167.94841 167.94841,-167.94841c92.75536,0 167.94841,75.19307 167.94841,167.94841c0,92.75536 -75.19306,167.94841 -167.94841,167.94841c-92.75535,0 -167.94841,-75.19306 -167.94841,-167.94841z" fill="none" stroke="#ff6200" stroke-width="0.5" stroke-linecap="butt"/><text transform="translate(378.63994,54.25129) scale(0.20697,0.20697)" font-size="40" xml:space="preserve" fill="#ff6200" fill-rule="nonzero" stroke="none" stroke-width="1" stroke-linecap="butt" stroke-linejoin="miter" stroke-miterlimit="10" stroke-dasharray="" stroke-dashoffset="0" font-family="Pixel" font-weight="normal" text-anchor="start" style="mix-blend-mode: normal"><tspan x="0" dy="0">490210215497145120</tspan></text><text transform="translate(451.09626,61.46611) scale(0.12413,0.12413)" font-size="40" xml:space="preserve" fill="#ff6200" fill-rule="nonzero" stroke="none" stroke-width="1" stroke-linecap="butt" stroke-linejoin="miter" stroke-miterlimit="10" stroke-dasharray="" stroke-dashoffset="0" font-family="Pixel" font-weight="normal" text-anchor="start" style="mix-blend-mode: normal"><tspan x="0" dy="0">PIXELR#3</tspan><tspan x="0" dy="46.150000000000006px"> </tspan><tspan x="0" dy="46.150000000000006px"> </tspan><tspan x="0" dy="46.150000000000006px">PWMS &amp; M</tspan><tspan x="0" dy="46.150000000000006px"> </tspan><tspan x="0" dy="46.150000000000006px"> </tspan></text><text transform="translate(394.58158,71.47289) scale(0.20697,0.20697)" font-size="40" xml:space="preserve" fill="#ff6200" fill-rule="nonzero" stroke="none" stroke-width="1" stroke-linecap="butt" stroke-linejoin="miter" stroke-miterlimit="10" stroke-dasharray="" stroke-dashoffset="0" font-family="Pixel" font-weight="normal" text-anchor="start" style="mix-blend-mode: normal"><tspan x="0" dy="0">||||||||||||||||||||||||||||||||||||||||</tspan></text><text transform="translate(409.97502,84.17496) scale(0.12413,0.12413)" font-size="40" xml:space="preserve" fill="#ff6200" fill-rule="nonzero" stroke="none" stroke-width="1" stroke-linecap="butt" stroke-linejoin="miter" stroke-miterlimit="10" stroke-dasharray="" stroke-dashoffset="0" font-family="Pixel" font-weight="normal" text-anchor="start" style="mix-blend-mode: normal"><tspan x="0" dy="0">no accesss to hig  er   m   d</tspan></text><text transform="translate(410.05354,89.31327) scale(0.12413,0.12413)" font-size="40" xml:space="preserve" fill="#ff6200" fill-rule="nonzero" stroke="none" stroke-width="1" stroke-linecap="butt" stroke-linejoin="miter" stroke-miterlimit="10" stroke-dasharray="" stroke-dashoffset="0" font-family="Pixel" font-weight="normal" text-anchor="start" style="mix-blend-mode: normal"><tspan x="0" dy="0">no accesss to high       </tspan></text><text transform="translate(409.91287,94.91805) scale(0.12413,0.12413)" font-size="40" xml:space="preserve" fill="#ff6200" fill-rule="nonzero" stroke="none" stroke-width="1" stroke-linecap="butt" stroke-linejoin="miter" stroke-miterlimit="10" stroke-dasharray="" stroke-dashoffset="0" font-family="Pixel" font-weight="normal" text-anchor="start" style="mix-blend-mode: normal"><tspan x="0" dy="0">nooooooo   to h    h           od</tspan></text><text transform="translate(410.0746,100.52283) scale(0.12413,0.12413)" font-size="40" xml:space="preserve" fill="#ff6200" fill-rule="nonzero" stroke="none" stroke-width="1" stroke-linecap="butt" stroke-linejoin="miter" stroke-miterlimit="10" stroke-dasharray="" stroke-dashoffset="0" font-family="Pixel" font-weight="normal" text-anchor="start" style="mix-blend-mode: normal"><tspan x="0" dy="0">no acccss </tspan></text><text transform="translate(417.19134,109.15154) scale(0.12413,0.12413)" font-size="40" xml:space="preserve" fill="#ff6200" fill-rule="nonzero" stroke="none" stroke-width="1" stroke-linecap="butt" stroke-linejoin="miter" stroke-miterlimit="10" stroke-dasharray="" stroke-dashoffset="0" font-family="Pixel" font-weight="normal" text-anchor="start" style="mix-blend-mode: normal"><tspan x="0" dy="0">access to hhhhc        ate</tspan></text><text transform="translate(430.9607,115.05872) scale(0.12413,0.12413)" font-size="40" xml:space="preserve" fill="#ff6200" fill-rule="nonzero" stroke="none" stroke-width="1" stroke-linecap="butt" stroke-linejoin="miter" stroke-miterlimit="10" stroke-dasharray="" stroke-dashoffset="0" font-family="Pixel" font-weight="normal" text-anchor="start" style="mix-blend-mode: normal"><tspan x="0" dy="0">stop hid ///      ate</tspan></text><text transform="translate(414.00636,131.53361) scale(0.119,0.119)" font-size="40" xml:space="preserve" fill="#ff6200" fill-rule="nonzero" stroke="none" stroke-width="1" stroke-linecap="butt" stroke-linejoin="miter" stroke-miterlimit="10" stroke-dasharray="" stroke-dashoffset="0" font-family="Pixel" font-weight="normal" text-anchor="start" style="mix-blend-mode: normal"><tspan x="0" dy="0">AA3WP2QWCarl_ER1R3R4</tspan></text><text transform="translate(440.08489,139.06184) scale(0.0782,0.0782)" font-size="40" xml:space="preserve" fill="#ff6200" fill-rule="nonzero" stroke="none" stroke-width="1" stroke-linecap="butt" stroke-linejoin="miter" stroke-miterlimit="10" stroke-dasharray="" stroke-dashoffset="0" font-family="Pixel" font-weight="normal" text-anchor="start" style="mix-blend-mode: normal"><tspan x="0" dy="0">MOD permanent EXIT</tspan></text><text transform="translate(414.21587,251.00556) scale(0.119,0.119)" font-size="40" xml:space="preserve" fill="#ff6200" fill-rule="nonzero" stroke="none" stroke-width="1" stroke-linecap="butt" stroke-linejoin="miter" stroke-miterlimit="10" stroke-dasharray="" stroke-dashoffset="0" font-family="Pixel" font-weight="normal" text-anchor="start" style="mix-blend-mode: normal"><tspan x="0" dy="0">5/1010/20/244/444444</tspan></text><text transform="translate(432.33199,121.26828) scale(0.12413,0.12413)" font-size="40" xml:space="preserve" fill="#ff6200" fill-rule="nonzero" stroke="none" stroke-width="1" stroke-linecap="butt" stroke-linejoin="miter" stroke-miterlimit="10" stroke-dasharray="" stroke-dashoffset="0" font-family="Pixel" font-weight="normal" text-anchor="start" style="mix-blend-mode: normal"><tspan x="0" dy="0">o_Op hid///      ate</tspan></text><path d="M444.66648,121.5112v-4.89779h10.76722v4.89779z" fill="#ff6200" stroke="none" stroke-width="0" stroke-linecap="butt"/><text transform="translate(469.06682,144.06184) scale(0.0782,0.0782)" font-size="40" xml:space="preserve" fill="#ff6200" fill-rule="nonzero" stroke="none" stroke-width="1" stroke-linecap="butt" stroke-linejoin="miter" stroke-miterlimit="10" stroke-dasharray="" stroke-dashoffset="0" font-family="Pixel" font-weight="normal" text-anchor="start" style="mix-blend-mode: normal"><tspan x="0" dy="0">……</tspan></text><text transform="translate(469.018,148.55696) scale(0.0782,0.0782)" font-size="40" xml:space="preserve" fill="#ff6200" fill-rule="nonzero" stroke="none" stroke-width="1" stroke-linecap="butt" stroke-linejoin="miter" stroke-miterlimit="10" stroke-dasharray="" stroke-dashoffset="0" font-family="Pixel" font-weight="normal" text-anchor="start" style="mix-blend-mode: normal"><tspan x="0" dy="0">……</tspan></text></g></g></svg>