<svg version="1.1" xmlns="http://www.w3.org/2000/svg" xmlns:xlink="http://www.w3.org/1999/xlink" width="55.1192" height="55.40615" viewBox="0,0,55.1192,55.40615"><g transform="translate(-212.4404,-152.29693)"><g data-paper-data="{&quot;isPaintingLayer&quot;:true}" fill="none" fill-rule="nonzero" stroke-linecap="butt" stroke-linejoin="miter" stroke-miterlimit="10" stroke-dasharray="" stroke-dashoffset="0" style="mix-blend-mode: normal"><path d="M213.9404,180c0,-14.39232 26.0596,-26.0596 26.0596,-26.0596c0,0 26.0596,11.66728 26.0596,26.0596c0,14.39232 -26.0596,26.0596 -26.0596,26.0596c0,0 -26.0596,-11.66728 -26.0596,-26.0596z" stroke="#ffde00" stroke-width="3"/><path d="M240,200.61306c-11.38428,0 -20.61306,-20.61306 -20.61306,-20.61306c0,0 9.22878,-20.61306 20.61306,-20.61306c11.38428,0 20.61306,20.61306 20.61306,20.61306c0,0 -9.22878,20.61306 -20.61306,20.61306z" stroke="#927f00" stroke-width="2.5"/><path d="M225.27461,180c0,-8.13261 14.72539,-14.72539 14.72539,-14.72539c0,0 14.72539,6.59278 14.72539,14.72539c0,8.13261 -14.72539,14.72539 -14.72539,14.72539c0,0 -14.72539,-6.59278 -14.72539,-14.72539z" stroke="#ffde00" stroke-width="2"/><path d="M240,191.64774c-6.43287,0 -11.64774,-11.64774 -11.64774,-11.64774c0,0 5.21487,-11.64774 11.64774,-11.64774c6.43287,0 11.64774,11.64774 11.64774,11.64774c0,0 -5.21487,11.64774 -11.64774,11.64774z" stroke="#927f00" stroke-width="1.5"/><path d="M232.7692,154.96366c13.82719,-3.99346 32.26714,17.80554 32.26714,17.80554c0,0 -3.97835,28.27368 -17.80554,32.26714c-13.82719,3.99346 -32.26714,-17.80554 -32.26714,-17.80554c0,0 3.97835,-28.27368 17.80554,-32.26714z" stroke="#fff4ad" stroke-width="3"/><path d="M220.19634,185.71954c-3.15882,-10.93726 14.08412,-25.52321 14.08412,-25.52321c0,0 22.36439,3.14686 25.52321,14.08412c3.15882,10.93726 -14.08412,25.52321 -14.08412,25.52321c0,0 -22.36439,-3.14686 -25.52321,-14.08412z" stroke="#914d00" stroke-width="2.5"/><path d="M235.91412,165.85282c7.81327,-2.25657 18.23306,10.0613 18.23306,10.0613c0,0 -2.24803,15.97649 -10.0613,18.23306c-7.81327,2.25657 -18.23306,-10.0613 -18.23306,-10.0613c0,0 2.24803,-15.97649 10.0613,-18.23306z" stroke="#fff4ab" stroke-width="2"/><path d="M228.80962,183.23192c-1.78494,-6.18028 7.95846,-14.4223 7.95846,-14.4223c0,0 12.63736,1.77818 14.4223,7.95846c1.78494,6.18028 -7.95846,14.4223 -7.95846,14.4223c0,0 -12.63736,-1.77818 -14.4223,-7.95846z" stroke="#914d00" stroke-width="1.5"/></g></g></svg>