<svg version="1.1" xmlns="http://www.w3.org/2000/svg" xmlns:xlink="http://www.w3.org/1999/xlink" width="280.63196" height="21.16322" viewBox="0,0,280.63196,21.16322"><g transform="translate(-229.41848,-169.41843)"><g fill="none" stroke-miterlimit="10"><path d="M229.91848,180.00005c0,-5.56792 4.5137,-10.08161 10.08161,-10.08161c5.56792,0 10.08161,4.5137 10.08161,10.08161c0,5.56792 -4.5137,10.08161 -10.08161,10.08161c-5.56792,0 -10.08161,-4.5137 -10.08161,-10.08161z" stroke="#80f3ff" stroke-width="1" stroke-linecap="butt"/><path d="M233.58204,172.04251h41.51965c0,0 51.79164,5.12476 51.79164,7.53168c0,2.74237 -51.89666,7.94419 -51.89666,7.94419l-41.59857,0.10371" stroke="#80f3ff" stroke-width="0.5" stroke-linecap="butt"/><path d="M232.60276,172.60823c0,0 38.75152,0.26773 48.47945,1.39106c10.65641,1.23055 15.866,5.90354 15.866,5.90354c0,0 -5.16915,4.53259 -15.27837,5.69995c-10.35402,1.19563 -49.06706,1.18749 -49.06706,1.18749" stroke="#80f3ff" stroke-width="0.5" stroke-linecap="round"/><path d="M321.9225,178.57962h-51.71141" stroke="#80f3ff" stroke-width="0.5" stroke-linecap="round"/><path d="M270.21111,181.02245h51.12378" stroke="#80f3ff" stroke-width="0.5" stroke-linecap="round"/><path d="M271.97395,172.60823l54.06194,6.24281" stroke="#80f3ff" stroke-width="0.5" stroke-linecap="round"/><path d="M273.73686,186.79027l49.06708,-5.66603" stroke="#80f3ff" stroke-width="0.5" stroke-linecap="round"/><path d="M305.12046,172.07192h90.85163c0,0 113.32835,5.12476 113.32835,7.53168c0,2.74237 -113.55815,7.94419 -113.55815,7.94419l-91.0243,0.10371" stroke-opacity="0.25098" stroke="#80f2ff" stroke-width="1.5" stroke-linecap="butt"/></g></g></svg>