<svg version="1.1" xmlns="http://www.w3.org/2000/svg" xmlns:xlink="http://www.w3.org/1999/xlink" width="371.792" height="44.96194" viewBox="0,0,371.792,44.96194"><g transform="translate(-229.41845,-157.88591)"><g fill="none" stroke-miterlimit="10"><path d="M229.91845,180c0,-5.56792 4.5137,-10.08161 10.08161,-10.08161c5.56792,0 10.08161,4.5137 10.08161,10.08161c0,5.56792 -4.5137,10.08161 -10.08161,10.08161c-5.56792,0 -10.08161,-4.5137 -10.08161,-10.08161z" stroke="#80f3ff" stroke-width="1" stroke-linecap="butt"/><path d="M247.17765,158.38591h318.83578c0,0 34.69702,14.46086 34.69702,21.25264c0,7.73833 -33.22388,22.7093 -33.22388,22.7093h-321.00563" stroke="#80f3ff" stroke-width="1" stroke-linecap="butt"/><path d="M260.43665,180.02542l322.02103,-0.9627" stroke="#80f3ff" stroke-width="1" stroke-linecap="round"/><path d="M249.13296,160.85779h313.82964c0,0 34.15223,12.91276 34.15223,18.97745c0,6.90991 -32.70222,20.27817 -32.70222,20.27817h-315.96542" stroke="#80f3ff" stroke-width="1" stroke-linecap="butt"/><path d="M307.28325,172.89307l-21.92776,6.97701l21.59552,6.64478" stroke="#80f3ff" stroke-width="1.5" stroke-linecap="round"/><path d="M344.17818,172.90949l-21.92776,6.97701l21.59552,6.64478" stroke="#80f3ff" stroke-width="1.5" stroke-linecap="round"/><path d="M377.41847,172.92591l-21.92776,6.97701l21.59552,6.64478" stroke="#80f3ff" stroke-width="1.5" stroke-linecap="round"/></g></g></svg>