<svg version="1.1" xmlns="http://www.w3.org/2000/svg" xmlns:xlink="http://www.w3.org/1999/xlink" width="243.19884" height="66.22858" viewBox="0,0,243.19884,66.22858"><g transform="translate(-225.98598,-143.58075)"><g fill="none" stroke="#80f3ff" stroke-miterlimit="10"><path d="" stroke-width="1" stroke-linecap="butt"/><path d="M248.64421,144.08075h168.96769c0,0 51.07293,21.45635 51.07293,31.53358c0,11.48163 -47.83629,33.695 -50.03876,33.695c-15.90027,0 -170.43544,0 -170.43544,0" stroke-width="1" stroke-linecap="butt"/><path d="M256.89671,176.4376l200.42752,0.24136" stroke-width="1" stroke-linecap="round"/><path d="M240.1987,179.6433h44.9226" stroke-width="1.5" stroke-linecap="round"/><path d="M268.68667,172.13344l18.72739,7.50986l-18.72739,7.50986" stroke-width="1.5" stroke-linecap="round"/><path d="M226.48598,180c0,-7.46357 6.05042,-13.51402 13.51402,-13.51402c7.46357,0 13.51402,6.05043 13.51402,13.51402c0,7.46357 -6.05043,13.51403 -13.51402,13.51403c-7.46357,0 -13.51401,-6.05043 -13.51401,-13.51403z" stroke-width="1" stroke-linecap="butt"/></g></g></svg>