<svg version="1.1" xmlns="http://www.w3.org/2000/svg" xmlns:xlink="http://www.w3.org/1999/xlink" width="318.33561" height="242.17676" viewBox="0,0,318.33561,242.17676"><g transform="translate(-229.41848,-58.76839)"><g fill="none" stroke-miterlimit="10"><path d="" stroke="#80f3ff" stroke-width="1" stroke-linecap="round"/><path d="" stroke="#80f3ff" stroke-width="1" stroke-linecap="butt"/><path d="M546.42639,59.26839l-234.54653,76.51988" stroke="#80f3ff" stroke-width="1" stroke-linecap="round"/><path d="M312.0248,223.92522l235.2293,76.51992" stroke="#80f3ff" stroke-width="1" stroke-linecap="round"/><path d="M229.91848,180c0,-5.56792 4.5137,-10.08161 10.08161,-10.08161c5.56792,0 10.08161,4.5137 10.08161,10.08161c0,5.56792 -4.5137,10.08161 -10.08161,10.08161c-5.56792,0 -10.08161,-4.5137 -10.08161,-10.08161z" stroke="#80f3ff" stroke-width="1" stroke-linecap="butt"/><path d="M538.79255,64.14214l-224.9851,73.4005" stroke="#80f3ff" stroke-width="1" stroke-linecap="round"/><path d="M313.94648,222.08664l225.64003,73.40054" stroke="#80f3ff" stroke-width="1" stroke-linecap="round"/><path d="M317.68569,168.00744l9.8724,12.12894l-9.8724,11.00067" stroke="#80f3ff" stroke-width="1.5" stroke-linecap="round"/><path d="M292.78643,171.31503l6.86252,8.4311l-6.86252,7.64681" stroke="#80f3ff" stroke-width="1.5" stroke-linecap="round"/><path d="M270.98992,174.05849l4.8158,5.91656l-4.8158,5.36618" stroke="#80f3ff" stroke-width="1.5" stroke-linecap="round"/></g></g></svg>