<svg version="1.1" xmlns="http://www.w3.org/2000/svg" xmlns:xlink="http://www.w3.org/1999/xlink" width="149.59229" height="118.34526" viewBox="0,0,149.59229,118.34526"><g transform="translate(-180.82737,-120.82737)"><g fill="none" stroke-miterlimit="10"><path d="M181.32737,180c0,-32.404 26.26869,-58.67263 58.67263,-58.67263c32.404,0 58.67263,26.26869 58.67263,58.67263c0,32.404 -26.26869,58.67263 -58.67263,58.67263c-32.404,0 -58.67263,-26.26869 -58.67263,-58.67263z" stroke="#80f3ff" stroke-linecap="butt"/><path d="M230.06708,180c0,-5.48579 4.44712,-9.93292 9.93292,-9.93292c5.48579,0 9.93292,4.44712 9.93292,9.93292c0,5.48579 -4.44712,9.93292 -9.93292,9.93292c-5.48579,0 -9.93292,-4.44712 -9.93292,-9.93292z" stroke="#80f3ff" stroke-linecap="butt"/><path d="M310.71612,182.55293l18.31546,7.07583l-18.08651,6.9801" stroke="#80f3ff" stroke-linecap="round"/><path d="M240.29684,189.88673l88.48279,-0.1865" stroke="#80f3ff" stroke-linecap="round"/><path d="M184.27297,180c0,-30.77719 24.9499,-55.72703 55.72703,-55.72703c30.77719,0 55.72703,24.9499 55.72703,55.72703c0,30.77719 -24.9499,55.72703 -55.72703,55.72703c-30.77719,0 -55.72703,-24.9499 -55.72703,-55.72703z" stroke="#80f3ff" stroke-linecap="butt"/></g></g></svg>