<svg version="1.1" xmlns="http://www.w3.org/2000/svg" xmlns:xlink="http://www.w3.org/1999/xlink" width="256.42495" height="21.16322" viewBox="0,0,256.42495,21.16322"><g transform="translate(-229.41839,-169.41839)"><g fill="none" stroke="#80f3ff" stroke-miterlimit="10"><path d="M236.51572,180c0,-5.56792 4.5137,-10.08161 10.08161,-10.08161c5.56792,0 10.08161,4.5137 10.08161,10.08161c0,5.56792 -4.5137,10.08161 -10.08161,10.08161c-5.56792,0 -10.08161,-4.5137 -10.08161,-10.08161z" stroke-width="1" stroke-linecap="butt"/><path d="M248.79395,176.22935h227.37309c0,0 9.4263,2.65213 9.4263,3.89774c0,1.41921 -9.4263,4.16489 -9.4263,4.16489h-227.30643" stroke-width="0.5" stroke-linecap="butt"/><path d="M256.75327,180.19804l216.56477,-0.17656" stroke-width="0.5" stroke-linecap="round"/><path d="M229.91839,180c0,-5.56792 4.5137,-10.08161 10.08161,-10.08161c5.56792,0 10.08161,4.5137 10.08161,10.08161c0,5.56792 -4.5137,10.08161 -10.08161,10.08161c-5.56792,0 -10.08161,-4.5137 -10.08161,-10.08161z" stroke-width="1" stroke-linecap="butt"/></g></g></svg>