<svg version="1.1" xmlns="http://www.w3.org/2000/svg" xmlns:xlink="http://www.w3.org/1999/xlink" width="199.93979" height="199.00159" viewBox="0,0,199.93979,199.00159"><g transform="translate(-128.20145,-90.96824)"><g fill="none" stroke-miterlimit="10"><path d="M223.67556,180c0,-9.01574 7.30872,-16.32444 16.32444,-16.32444c9.01574,0 16.32444,7.30872 16.32444,16.32444c0,9.01574 -7.30872,16.32444 -16.32444,16.32444c-9.01574,0 -16.32444,-7.30872 -16.32444,-16.32444z" stroke="#80f3ff" stroke-width="1" stroke-linecap="butt"/><path d="M323.68167,102.07815l-28.57393,30.12328c0,0 -39.36125,34.04893 -41.10751,32.39248c-1.98964,-1.88731 29.95175,-43.11921 29.95175,-43.11921l28.553,-30.25191" stroke-opacity="0.25098" stroke="#80f2ff" stroke-width="0.5" stroke-linecap="butt"/><path d="M323.94516,100.97834c0,0 -26.86314,27.9307 -34.37292,34.21541c-8.22656,6.88456 -15.20215,7.44825 -15.20215,7.44825c0,0 0.26894,-6.86965 6.37919,-15.00746c6.25821,-8.33487 32.90653,-36.4163 32.90653,-36.4163" stroke-opacity="0.25098" stroke="#80f2ff" stroke-width="0.5" stroke-linecap="round"/><path d="M293.73068,124.15437l-35.58792,37.51759" stroke-opacity="0.25098" stroke="#80f2ff" stroke-width="0.5" stroke-linecap="round"/><path d="M291.95833,122.47321l-35.18351,37.09126" stroke-opacity="0.25098" stroke="#80f2ff" stroke-width="0.5" stroke-linecap="round"/><path d="M296.84981,129.54287l-41.73484,34.92663" stroke-opacity="0.25098" stroke="#80f2ff" stroke-width="0.5" stroke-linecap="round"/><path d="M255.68997,160.56025l29.65728,-39.49846" stroke-opacity="0.25098" stroke="#80f2ff" stroke-width="0.5" stroke-linecap="round"/><path d="M285.97739,289.10158l-18.75015,-37.04474c0,0 -18.81653,-48.52397 -16.66902,-49.61093c2.4468,-1.23845 30.52436,42.71577 30.52436,42.71577l18.87832,37.06833" stroke-opacity="0.25098" stroke="#80f2ff" stroke-width="0.5" stroke-linecap="butt"/><path d="M286.92437,289.71983c0,0 -17.2612,-34.69587 -20.65204,-43.88263c-3.71448,-10.0636 -1.89777,-16.82201 -1.89777,-16.82201c0,0 6.37845,2.56512 11.98529,11.05762c5.74261,8.69814 23.21804,43.24245 23.21804,43.24245" stroke-opacity="0.25098" stroke="#80f2ff" stroke-width="0.5" stroke-linecap="round"/><path d="M251.91564,207.33015l23.35272,46.13806" stroke-opacity="0.25098" stroke="#80f2ff" stroke-width="0.5" stroke-linecap="round"/><path d="M254.36057,206.75125l23.08734,45.61376" stroke-opacity="0.25098" stroke="#80f2ff" stroke-width="0.5" stroke-linecap="round"/><path d="M269.14446,254.59199l-18.84423,-51.05449" stroke-opacity="0.25098" stroke="#80f2ff" stroke-width="0.5" stroke-linecap="round"/><path d="M253.78796,205.39455l27.2139,41.21997" stroke-opacity="0.25098" stroke="#80f2ff" stroke-width="0.5" stroke-linecap="round"/><path d="M134.71262,130.91517l38.69287,15.058c0,0 46.40691,23.55921 45.53399,25.80226c-0.99458,2.55566 -51.24452,-11.41812 -51.24452,-11.41812l-38.80403,-14.98997" stroke-opacity="0.25098" stroke="#80f2ff" stroke-width="0.5" stroke-linecap="butt"/><path d="M133.59485,131.08722c0,0 36.01611,14.30357 44.67433,18.87847c9.4846,5.01155 12.64475,11.25575 12.64475,11.25575c0,0 -6.46106,2.3493 -16.30538,-0.22915c-10.08271,-2.64088 -46.1571,-16.68859 -46.1571,-16.68859" stroke-opacity="0.25098" stroke="#80f2ff" stroke-width="0.5" stroke-linecap="round"/><path d="M166.47703,150.29151l48.19075,18.75425" stroke-opacity="0.25098" stroke="#80f2ff" stroke-width="0.5" stroke-linecap="round"/><path d="M165.5911,152.56805l47.64312,18.54114" stroke-opacity="0.25098" stroke="#80f2ff" stroke-width="0.5" stroke-linecap="round"/><path d="M170.28553,145.36603l48.11715,25.42451" stroke-opacity="0.25098" stroke="#80f2ff" stroke-width="0.5" stroke-linecap="round"/><path d="M166.785,159.22186l47.78135,12.51497" stroke-opacity="0.25098" stroke="#80f2ff" stroke-width="0.5" stroke-linecap="round"/><path d="M150.22244,181.59743l29.59403,-2.53909c0,0 37.22902,0.48552 37.37621,2.20111c0.16771,1.95468 -36.50466,8.83608 -36.50466,8.83608l-29.64394,2.61784" stroke-opacity="0.25098" stroke="#80f2ff" stroke-width="0.5" stroke-linecap="butt"/><path d="M149.55903,182.06054c0,0 27.63736,-2.17898 34.63985,-1.9732c7.67084,0.22542 11.66986,3.2376 11.66986,3.2376c0,0 -3.40724,3.54682 -10.54141,4.99709c-7.30694,1.4854 -34.90099,3.84705 -34.90099,3.84705" stroke-opacity="0.25098" stroke="#80f2ff" stroke-width="0.5" stroke-linecap="round"/><path d="M176.73035,184.01687l36.85843,-3.16236" stroke-opacity="0.25098" stroke="#80f2ff" stroke-width="0.5" stroke-linecap="round"/><path d="M176.87975,185.75806l36.43958,-3.12642" stroke-opacity="0.25098" stroke="#80f2ff" stroke-width="0.5" stroke-linecap="round"/><path d="M177.6217,179.65284l38.91559,1.1436" stroke-opacity="0.25098" stroke="#80f2ff" stroke-width="0.5" stroke-linecap="round"/><path d="M179.74554,189.65358l34.62712,-7.03922" stroke-opacity="0.25098" stroke="#80f2ff" stroke-width="0.5" stroke-linecap="round"/><path d="M204.94494,259.08678l10.80924,-27.66611c0,0 16.89827,-33.17655 18.5021,-32.54994c1.82735,0.71395 -8.21728,36.64891 -8.21728,36.64891l-10.76068,27.7457" stroke-opacity="0.25098" stroke="#80f2ff" stroke-width="0.5" stroke-linecap="butt"/><path d="M205.06696,259.88658c0,0 10.26698,-25.75191 13.54807,-31.94155c3.59426,-6.78041 8.06431,-9.03518 8.06431,-9.03518c0,0 1.6745,4.62442 -0.17948,11.66448c-1.89888,7.21055 -11.98287,33.00439 -11.98287,33.00439" stroke-opacity="0.25098" stroke="#80f2ff" stroke-width="0.5" stroke-linecap="round"/><path d="M218.83687,236.38133l13.46256,-34.45728" stroke-opacity="0.25098" stroke="#80f2ff" stroke-width="0.5" stroke-linecap="round"/><path d="M220.46464,237.01728l13.30958,-34.06571" stroke-opacity="0.25098" stroke="#80f2ff" stroke-width="0.5" stroke-linecap="round"/><path d="M215.31686,233.65207l18.23432,-34.39826" stroke-opacity="0.25098" stroke="#80f2ff" stroke-width="0.5" stroke-linecap="round"/><path d="M225.22584,236.16953l8.99865,-34.17035" stroke-opacity="0.25098" stroke="#80f2ff" stroke-width="0.5" stroke-linecap="round"/><path d="M326.1831,192.36707l-29.56612,-2.84577c0,0 -36.52954,-7.19915 -36.36457,-8.91312c0.18796,-1.95284 37.50008,-2.10004 37.50008,-2.10004l29.62943,2.77733" stroke-opacity="0.25098" stroke="#80f2ff" stroke-width="0.5" stroke-linecap="butt"/><path d="M326.91921,192.03134c0,0 -27.57659,-2.84668 -34.42685,-4.31336c-7.50408,-1.60667 -10.89353,-5.29136 -10.89353,-5.29136c0,0 3.99161,-2.87337 11.27039,-3.01175c7.45504,-0.14174 35.02202,2.51746 35.02202,2.51746" stroke-opacity="0.25098" stroke="#80f2ff" stroke-width="0.5" stroke-linecap="round"/><path d="M300.54763,185.20145l-36.82366,-3.54431" stroke-opacity="0.25098" stroke="#80f2ff" stroke-width="0.5" stroke-linecap="round"/><path d="M300.71505,183.46189l-36.40521,-3.50404" stroke-opacity="0.25098" stroke="#80f2ff" stroke-width="0.5" stroke-linecap="round"/><path d="M298.88301,189.33283l-38.06959,-8.15092" stroke-opacity="0.25098" stroke="#80f2ff" stroke-width="0.5" stroke-linecap="round"/><path d="M298.59968,179.11299l-35.32899,0.6717" stroke-opacity="0.25098" stroke="#80f2ff" stroke-width="0.5" stroke-linecap="round"/></g></g></svg>