<svg version="1.1" xmlns="http://www.w3.org/2000/svg" xmlns:xlink="http://www.w3.org/1999/xlink" width="343.03803" height="262.27179" viewBox="0,0,343.03803,262.27179"><g transform="translate(-229.41839,-49.33439)"><g data-paper-data="{&quot;isPaintingLayer&quot;:true}" fill="none" fill-rule="nonzero" stroke="#80f3ff" stroke-width="1" stroke-linejoin="miter" stroke-miterlimit="10" stroke-dasharray="" stroke-dashoffset="0" style="mix-blend-mode: normal"><path d="M247.12106,173.47277h311.9046c0,0 12.93077,4.47766 12.93077,6.58067c0,2.3961 -12.93077,7.03171 -12.93077,7.03171h-312.54475" stroke-linecap="butt"/><path d="M244.29449,188.72613l288.15988,122.38043c0,0 11.5919,0.45256 12.51046,-1.71031c0.8498,-2.00094 -7.18933,-10.81894 -7.18933,-10.81894l-289.16773,-122.80845l283.23266,-118.4209" stroke-linecap="butt"/><path d="M245.41641,171.94135l287.37129,-122.04552c0,0 12.46786,-0.53194 13.3455,1.53457c0.8957,2.10903 -8.02437,10.99469 -8.02437,10.99469l-290.57793,123.40737l284.74085,118.054" data-paper-data="{&quot;index&quot;:null}" stroke-linecap="butt"/><path d="M229.9184,180c0,-5.56792 4.5137,-10.08161 10.08161,-10.08161c5.56792,0 10.08161,4.5137 10.08161,10.08161c0,5.56792 -4.5137,10.08161 -10.08161,10.08161c-5.56792,0 -10.08161,-4.5137 -10.08161,-10.08161z" stroke-linecap="butt"/><path d="M259.30379,180.17323l295.88152,-0.29809" stroke-linecap="round"/></g></g></svg>