<svg version="1.1" xmlns="http://www.w3.org/2000/svg" xmlns:xlink="http://www.w3.org/1999/xlink" width="207.38199" height="207.38199" viewBox="0,0,207.38199,207.38199"><g transform="translate(-136.309,-76.309)"><g fill="none" stroke-miterlimit="10"><path d="M240.46026,179.72033c0,0 73.44216,-69.80643 74.40269,-68.77186c1.60023,1.72357 3.14129,3.50281 4.61997,5.33453c6.98212,8.64909 12.57323,18.46783 16.43329,29.11617c3.91401,10.79717 6.04826,22.44729 6.04826,34.5959c0,8.78171 -1.1152,17.30295 -3.21169,25.42983c-0.24028,0.93144 -0.75933,2.77859 -0.75933,2.77859l-97.53319,-28.48317z" stroke="#00ffff" stroke-width="1"/><path d="M303.5151,121.95694c1.33581,1.44451 2.62223,2.9357 3.85657,4.47085c5.8284,7.24877 10.49565,15.4778 13.71789,24.40213c3.26726,9.04906 5.04885,18.81299 5.04885,28.99467c0,7.35992 -0.93093,14.50154 -2.681,21.31264c-0.20057,0.78064 -0.63387,2.32874 -0.63387,2.32874l-81.41696,-23.87162c0,0 61.30669,-58.50446 62.10852,-57.63739z" stroke="#00ffff" stroke-width="0.5"/><path d="M137.059,180c0,-56.85274 46.08825,-102.941 102.941,-102.941c56.85274,0 102.941,46.08825 102.941,102.941c0,56.85274 -46.08825,102.941 -102.941,102.941c-56.85274,0 -102.941,-46.08825 -102.941,-102.941z" stroke-opacity="0.25098" stroke="#80f2ff" stroke-width="1.5"/></g></g></svg>