<svg version="1.1" xmlns="http://www.w3.org/2000/svg" xmlns:xlink="http://www.w3.org/1999/xlink" width="216.05148" height="80.98764" viewBox="0,0,216.05148,80.98764"><g transform="translate(-131.91924,-107.75585)"><g fill="none" stroke-miterlimit="10"><path d="M231.91847,180.00465c0,-4.46078 3.61619,-8.07696 8.07696,-8.07696c4.46078,0 8.07696,3.61619 8.07696,8.07696c0,4.46078 -3.61619,8.07696 -8.07696,8.07696c-4.46078,0 -8.07696,-3.61619 -8.07696,-8.07696z" stroke="#80f3ff" stroke-width="1" stroke-linecap="butt"/><path d="M240.06707,188.04833l-48.00667,-0.10371c0,0 -59.89115,-5.20182 -59.89115,-7.94419c0,-2.40692 59.76994,-7.53168 59.76994,-7.53168h47.91561" stroke-opacity="0.25098" stroke="#80f2ff" stroke-width="0.5" stroke-linecap="butt"/><path d="M240.9849,187.21651c0,0 -44.67663,0.00814 -56.62565,-1.18749c-11.66652,-1.16736 -17.63196,-5.69995 -17.63196,-5.69995c0,0 6.0121,-4.67299 18.3101,-5.90354c11.22647,-1.12333 55.94753,-1.39106 55.94753,-1.39106" stroke-opacity="0.25098" stroke="#80f2ff" stroke-width="0.5" stroke-linecap="round"/><path d="M137.9058,179.00585h59.67736" stroke-opacity="0.25098" stroke="#80f2ff" stroke-width="0.5" stroke-linecap="round"/><path d="M197.58315,181.44869h-58.99921" stroke-opacity="0.25098" stroke="#80f2ff" stroke-width="0.5" stroke-linecap="round"/><path d="M195.54874,173.03447l-62.38997,6.24281" stroke-opacity="0.25098" stroke="#80f2ff" stroke-width="0.5" stroke-linecap="round"/><path d="M136.88858,181.55048l56.62568,5.66603" stroke-opacity="0.25098" stroke="#80f2ff" stroke-width="0.5" stroke-linecap="round"/><path d="M237.35977,188.46133l-34.65098,-33.2259c0,0 -39.72638,-45.1201 -37.83265,-47.10362c1.66209,-1.74089 48.43181,35.82642 48.43181,35.82642l34.65673,33.08801" stroke-opacity="0.25098" stroke="#80f2ff" stroke-width="0.5" stroke-linecap="butt"/><path d="M238.59804,188.49349c0,0 -32.31965,-30.84545 -40.13658,-39.9616c-7.63212,-8.90062 -8.81688,-16.2984 -8.81688,-16.2984c0,0 7.5754,0.77173 17.32014,8.37404c8.89568,6.93992 41.42672,37.6283 41.42672,37.6283" stroke-opacity="0.25098" stroke="#80f2ff" stroke-width="0.5" stroke-linecap="round"/><path d="M169.71212,111.37381l43.16386,41.21005" stroke-opacity="0.25098" stroke="#80f2ff" stroke-width="0.5" stroke-linecap="round"/><path d="M211.18907,154.35073l-42.67336,-40.74176" stroke-opacity="0.25098" stroke="#80f2ff" stroke-width="0.5" stroke-linecap="round"/><path d="M215.52803,146.85998l-49.43681,-38.5679" stroke-opacity="0.25098" stroke="#80f2ff" stroke-width="0.5" stroke-linecap="round"/><path d="M167.21919,112.51187l37.04395,43.20089" stroke-opacity="0.25098" stroke="#80f2ff" stroke-width="0.5" stroke-linecap="round"/><path d="M240.03518,172.40148h47.91561c0,0 59.76994,5.12476 59.76994,7.53168c0,2.74237 -59.89115,7.94419 -59.89115,7.94419l-48.00667,0.10371" stroke-opacity="0.25098" stroke="#80f2ff" stroke-width="0.5" stroke-linecap="butt"/><path d="M238.90504,172.9672c0,0 44.72107,0.26773 55.94754,1.39106c12.298,1.23055 18.3101,5.90354 18.3101,5.90354c0,0 -5.96544,4.53259 -17.63196,5.69995c-11.94902,1.19563 -56.62565,1.18749 -56.62565,1.18749" stroke-opacity="0.25098" stroke="#80f2ff" stroke-width="0.5" stroke-linecap="round"/><path d="M341.98417,178.93858h-59.67735" stroke-opacity="0.25098" stroke="#80f2ff" stroke-width="0.5" stroke-linecap="round"/><path d="M341.30604,181.38142h-58.99921" stroke-opacity="0.25098" stroke="#80f2ff" stroke-width="0.5" stroke-linecap="round"/><path d="M284.34123,172.9672l62.38997,6.24281" stroke-opacity="0.25098" stroke="#80f2ff" stroke-width="0.5" stroke-linecap="round"/><path d="M343.00139,181.48321l-56.62568,5.66603" stroke-opacity="0.25098" stroke="#80f2ff" stroke-width="0.5" stroke-linecap="round"/><path d="M231.9253,176.97896l34.65674,-33.08801c0,0 46.76971,-37.56731 48.43181,-35.82642c1.89373,1.98352 -37.83265,47.10362 -37.83265,47.10362l-34.65099,33.2259" stroke-opacity="0.25098" stroke="#80f2ff" stroke-width="0.5" stroke-linecap="butt"/><path d="M231.49854,178.16856c0,0 32.53104,-30.68838 41.42672,-37.6283c9.74473,-7.60231 17.32014,-8.37404 17.32014,-8.37404c0,0 -1.18476,7.39778 -8.81688,16.2984c-7.81693,9.11615 -40.13658,39.9616 -40.13658,39.9616" stroke-opacity="0.25098" stroke="#80f2ff" stroke-width="0.5" stroke-linecap="round"/><path d="M310.17785,111.30654l-43.16386,41.21006" stroke-opacity="0.25098" stroke="#80f2ff" stroke-width="0.5" stroke-linecap="round"/><path d="M311.37427,113.5417l-42.67336,40.74175" stroke-opacity="0.25098" stroke="#80f2ff" stroke-width="0.5" stroke-linecap="round"/><path d="M264.36195,146.79271l49.43681,-38.5679" stroke-opacity="0.25098" stroke="#80f2ff" stroke-width="0.5" stroke-linecap="round"/><path d="M312.67079,112.4446l-37.04395,43.20089" stroke-opacity="0.25098" stroke="#80f2ff" stroke-width="0.5" stroke-linecap="round"/></g></g></svg>