<svg version="1.1" xmlns="http://www.w3.org/2000/svg" xmlns:xlink="http://www.w3.org/1999/xlink" width="369.76888" height="17.15392" viewBox="0,0,369.76888,17.15392"><g transform="translate(-231.4185,-171.42769)"><g fill="none" stroke-miterlimit="10"><path d="M231.9185,180.00466c0,-4.46078 3.61619,-8.07696 8.07696,-8.07696c4.46078,0 8.07696,3.61619 8.07696,8.07696c0,4.46078 -3.61619,8.07696 -8.07696,8.07696c-4.46078,0 -8.07696,-3.61619 -8.07696,-8.07696z" stroke="#80f3ff" stroke-linecap="butt"/><path d="M231.91852,180.00466c0,-4.46078 3.61619,-8.07696 8.07696,-8.07696c4.46078,0 8.07696,3.61619 8.07696,8.07696c0,4.46078 -3.61619,8.07696 -8.07696,8.07696c-4.46078,0 -8.07696,-3.61619 -8.07696,-8.07696z" stroke="#80f3ff" stroke-linecap="butt"/><path d="M247.70543,177.40573l352.94262,0.08197" stroke="#80f3ff" stroke-linecap="round"/><path d="M247.74476,182.40417l352.94262,0.08197" stroke="#80f3ff" stroke-linecap="round"/></g></g></svg>