<svg version="1.1" xmlns="http://www.w3.org/2000/svg" xmlns:xlink="http://www.w3.org/1999/xlink" width="368.41578" height="368.41578" viewBox="0,0,368.41578,368.41578"><g transform="translate(-55.79211,4.20789)"><g fill="none" stroke-miterlimit="10"><path d="M56.29211,180c0,-101.45908 82.24883,-183.70789 183.70789,-183.70789c101.45908,0 183.70789,82.24883 183.70789,183.70789c0,101.45908 -82.24883,183.70789 -183.70789,183.70789c-101.45908,0 -183.70789,-82.24883 -183.70789,-183.70789z" stroke="#00ffff" stroke-width="1" stroke-linecap="butt"/><path d="M117.12085,174.33621h108.02104c0,0 15.00083,3.90714 15.00083,5.7422c0,2.09081 -15.13926,6.13576 -15.13926,6.13576h-108.12508" stroke-opacity="0.25098" stroke="#80f2ff" stroke-width="1.5" stroke-linecap="butt"/><path d="M218.1624,179.92283l-97.07687,0.26012" stroke-opacity="0.25098" stroke="#80f2ff" stroke-width="1.5" stroke-linecap="round"/><path d="M61.28073,180c0,-98.70394 80.01535,-178.71927 178.71927,-178.71927c98.70394,0 178.71927,80.01535 178.71927,178.71927c0,98.70394 -80.01535,178.71927 -178.71927,178.71927c-98.70394,0 -178.71927,-80.01535 -178.71927,-178.71927z" stroke="#00ffff" stroke-width="1" stroke-linecap="butt"/></g></g></svg>