<svg version="1.1" xmlns="http://www.w3.org/2000/svg" xmlns:xlink="http://www.w3.org/1999/xlink" width="233.93263" height="105.70827" viewBox="0,0,233.93263,105.70827"><g transform="translate(-229.41839,-127.54735)"><g data-paper-data="{&quot;isPaintingLayer&quot;:true}" fill="none" fill-rule="nonzero" stroke-linejoin="miter" stroke-miterlimit="10" stroke-dasharray="" stroke-dashoffset="0" style="mix-blend-mode: normal"><path d="M236.51572,180c0,-5.56792 4.5137,-10.08161 10.08161,-10.08161c5.56792,0 10.08161,4.5137 10.08161,10.08161c0,5.56792 -4.5137,10.08161 -10.08161,10.08161c-5.56792,0 -10.08161,-4.5137 -10.08161,-10.08161z" stroke="#80f3ff" stroke-width="1" stroke-linecap="butt"/><path d="M256.23478,176.77142h198.63149c0,0 8.23475,2.30755 8.23475,3.39132c0,1.23482 -8.23475,3.62376 -8.23475,3.62376h-199.03916" stroke="#80f3ff" stroke-width="0.5" stroke-linecap="butt"/><path d="M263.99314,180.22447l188.42745,-0.15362" stroke="#80f3ff" stroke-width="0.5" stroke-linecap="round"/><path d="M258.02446,177.99752l192.69426,48.20156c0,0 7.42864,4.23689 7.16564,5.28826c-0.29965,1.19791 -8.86798,1.51713 -8.86798,1.51713l-193.08974,-48.30049" stroke="#80f3ff" stroke-width="0.5" stroke-linecap="butt"/><path d="M264.71299,183.23007l182.83251,45.57634" stroke="#80f3ff" stroke-width="0.5" stroke-linecap="round"/><path d="M255.94628,176.09899l193.08974,-48.30049c0,0 8.56834,0.31922 8.86799,1.51713c0.263,1.05138 -7.16565,5.28826 -7.16565,5.28826l-192.69426,48.20156" data-paper-data="{&quot;index&quot;:null}" stroke="#80f3ff" stroke-width="0.5" stroke-linecap="butt"/><path d="M264.73262,177.57291l182.83251,-45.57633" data-paper-data="{&quot;index&quot;:null}" stroke="#80f3ff" stroke-width="0.5" stroke-linecap="round"/><path d="M229.91839,180c0,-5.56792 4.5137,-10.08161 10.08161,-10.08161c5.56792,0 10.08161,4.5137 10.08161,10.08161c0,5.56792 -4.5137,10.08161 -10.08161,10.08161c-5.56792,0 -10.08161,-4.5137 -10.08161,-10.08161z" stroke="#80f3ff" stroke-width="1" stroke-linecap="butt"/></g></g></svg>