<svg version="1.1" xmlns="http://www.w3.org/2000/svg" xmlns:xlink="http://www.w3.org/1999/xlink" width="74.10908" height="30.30457" viewBox="0,0,74.10908,30.30457"><g transform="translate(-224.88265,-164.93897)"><g fill="none" stroke="#80f3ff" stroke-miterlimit="10"><path d="M239.94368,194.56102c-8.04183,0 -14.56102,-6.51919 -14.56102,-14.56102c0,-8.04183 6.51919,-14.56102 14.56102,-14.56102c8.04183,0 14.56102,6.51919 14.56102,14.56102c0,8.04183 -6.51919,14.56102 -14.56102,14.56102z" stroke-linecap="butt"/><path d="M239.24965,165.53578l29.38153,1.4649c0,0 29.86057,8.64441 29.86057,12.70442c0,4.62583 -29.4339,12.69622 -29.4339,12.69622l-29.20827,2.34384" stroke-linecap="butt"/><path d="M293.70611,180.23982l-53.70277,-0.59642" stroke-linecap="round"/><path d="M248.05838,168.48492l23.42401,1.16787c0,0 23.80592,6.89163 23.80592,10.12842c0,3.68788 -23.46577,10.12188 -23.46577,10.12188l-23.28588,1.86859" stroke-linecap="butt"/></g></g></svg>