<svg version="1.1" xmlns="http://www.w3.org/2000/svg" xmlns:xlink="http://www.w3.org/1999/xlink" width="235.6234" height="73.78777" viewBox="0,0,235.6234,73.78777"><g transform="translate(-229.41851,-143.44694)"><g fill="none" stroke-miterlimit="10"><path d="M229.91851,180.00006c0,-5.56792 4.5137,-10.08161 10.08161,-10.08161c5.56792,0 10.08161,4.5137 10.08161,10.08161c0,5.56792 -4.5137,10.08161 -10.08161,10.08161c-5.56792,0 -10.08161,-4.5137 -10.08161,-10.08161z" stroke="#80f3ff" stroke-linecap="butt"/><path d="M248.63604,143.94694h165.79264c0,0 50.11323,23.9429 50.11323,35.18794c0,12.81224 -46.93741,37.59983 -49.0985,37.59983c-15.60149,0 -167.23283,0 -167.23283,0" stroke="#80f3ff" stroke-linecap="butt"/><path d="M439.74001,163.23887l-196.66132,-0.26935" stroke="#80f3ff" stroke-linecap="round"/><path d="M238.74757,145.96675h170.6413c0,0 51.57881,22.52405 51.57881,33.10271c0,12.05299 -48.31011,35.37167 -50.5344,35.37167c-16.05776,0 -172.1236,0 -172.1236,0" stroke="#80f3ff" stroke-linecap="butt"/><path d="M439.8383,196.5988l-196.66132,-0.26935" stroke="#80f3ff" stroke-linecap="round"/></g></g></svg>