<svg version="1.1" xmlns="http://www.w3.org/2000/svg" xmlns:xlink="http://www.w3.org/1999/xlink" width="668.35379" height="425.24082" viewBox="0,0,668.35379,425.24082"><g transform="translate(96.35378,78.65959)"><g stroke-miterlimit="10"><path d="M-80.31973,346.58123v-425.24082h644v425.24082z" fill="#000000" stroke="none" stroke-width="0" stroke-linecap="butt"/><path d="M-73.33218,71.08927h513.83023" fill="none" stroke="#ffffff" stroke-width="2" stroke-linecap="round"/><path d="M-65.25205,167.333h518.39761" fill="none" stroke="#ffffff" stroke-width="2" stroke-linecap="round"/><path d="M110.94948,340.95678v-35.67681h102.30334v35.67681z" fill="none" stroke="#ffffff" stroke-width="2" stroke-linecap="butt"/><path d="M-95.35378,223.64704c0,0 185.01907,0 273.19607,0v31.33325c-88.15209,0 -269.61957,0 -269.61957,0" fill="none" stroke="#ffffff" stroke-width="2" stroke-linecap="round"/><text transform="translate(-20.17512,219.49059) scale(0.27146,0.27146)" font-size="40" xml:space="preserve" fill="#ffffff" stroke="none" stroke-width="1" stroke-linecap="butt" font-family="Pixel" font-weight="normal" text-anchor="start"><tspan x="0" dy="0">10      10       10      10      20     20 </tspan></text><path d="M-35.40334,254.64561v-30.5059" fill="none" stroke="#ffffff" stroke-width="2" stroke-linecap="round"/><path d="M-37.12439,72.20323l-0.6721,94.69191" fill="none" stroke="#ffffff" stroke-width="2" stroke-linecap="round"/><text transform="translate(-21.88235,65.52844) scale(0.27146,0.27146)" font-size="40" xml:space="preserve" fill="#ffffff" stroke="none" stroke-width="1" stroke-linecap="butt" font-family="Pixel" font-weight="normal" text-anchor="start"><tspan x="0" dy="0">100</tspan></text><path d="M567.00001,180.7c0,-1.38071 1.11929,-2.5 2.5,-2.5c1.38071,0 2.5,1.11929 2.5,2.5c0,1.38071 -1.11929,2.5 -2.5,2.5c-1.38071,0 -2.5,-1.11929 -2.5,-2.5z" fill="#dedede" stroke="none" stroke-width="0.5" stroke-linecap="butt"/><text transform="translate(110.71673,300.32634) scale(0.22786,0.22786)" font-size="40" xml:space="preserve" fill="#0ff9ff" stroke="none" stroke-width="1" stroke-linecap="butt" font-family="Pixel" font-weight="normal" text-anchor="start"><tspan x="0" dy="0">Available!!!</tspan></text><path d="M426.87565,72.20323l-0.6721,94.69191" fill="none" stroke="#ffffff" stroke-width="2" stroke-linecap="round"/><text transform="translate(-21.88235,65.52844) scale(0.27146,0.27146)" font-size="40" xml:space="preserve" fill="#ffffff" stroke="none" stroke-width="1" stroke-linecap="butt" font-family="Pixel" font-weight="normal" text-anchor="start"><tspan x="0" dy="0">100                                                 (拥有8件装备后继续购买装备会丢弃最初的装备)</tspan></text><text transform="translate(-50.90774,216.8946) scale(0.23657,0.23657)" font-size="40" xml:space="preserve" fill="#ffffff" stroke="none" stroke-width="1" stroke-linecap="butt" font-family="Pixel" font-weight="normal" text-anchor="start"><tspan x="0" dy="0">Heals</tspan></text></g></g></svg>