<svg version="1.1" xmlns="http://www.w3.org/2000/svg" xmlns:xlink="http://www.w3.org/1999/xlink" width="229.08186" height="45.30048" viewBox="0,0,229.08186,45.30048"><g transform="translate(-238.01366,-156.65303)"><g fill="none" stroke-miterlimit="10"><path d="M240.09078,157.15303h66.87021c0,0 83.41392,14.57222 83.41392,21.4163c0,7.79794 -83.58307,22.5893 -83.58307,22.5893l-66.9973,0.29488" stroke="#80f3ff" stroke-width="1" stroke-linecap="butt"/><path d="M238.51366,158.76165c0,0 62.41193,0.76128 78.07942,3.95548c17.16287,3.49907 25.55326,16.78666 25.55326,16.78666c0,0 -8.32526,12.88841 -24.60684,16.20781c-16.67585,3.39977 -79.02582,3.37662 -79.02582,3.37662" stroke="#80f3ff" stroke-width="1" stroke-linecap="round"/><path d="M299.08437,175.74126h83.28471" stroke="#80f3ff" stroke-width="1" stroke-linecap="round"/><path d="M381.42268,182.68747h-82.3383" stroke="#80f3ff" stroke-width="1" stroke-linecap="round"/><path d="M301.92361,158.76164l87.07039,17.75142" stroke="#80f3ff" stroke-width="0.5" stroke-linecap="round"/><path d="M383.7887,182.97689l-79.02584,16.11134" stroke="#80f3ff" stroke-width="0.5" stroke-linecap="round"/><path d="M239.92176,179.70476h212.31387" stroke-opacity="0.25098" stroke="#80f2ff" stroke-width="1.5" stroke-linecap="round"/><path d="M429.83435,172.26131l33.803,7.50986l-33.803,7.50986" stroke-opacity="0.25098" stroke="#80f2ff" stroke-width="1.5" stroke-linecap="round"/></g></g></svg>